<svg version="1.1" id="Layer_1" xmlns="http://www.w3.org/2000/svg" xmlns:xlink="http://www.w3.org/1999/xlink" x="0px" y="0px"
	 width="100%" viewBox="0 0 1254 1254" enable-background="new 0 0 1254 1254" xml:space="preserve">
<path fill="#000000" opacity="1.000000" stroke="none" 
	d="
M1255.000000,231.000000 
	C1255.000000,496.361359 1255.000000,761.722717 1254.619873,1027.688477 
	C1253.338257,1034.713135 1252.629272,1041.167114 1251.504517,1047.547852 
	C1244.108887,1089.501465 1226.713989,1126.947632 1200.087769,1160.088135 
	C1157.241333,1213.417236 1101.751831,1244.347168 1033.961670,1253.295044 
	C1030.296631,1253.778809 1026.653442,1254.427856 1023.000000,1255.000000 
	C759.305298,1255.000000 495.610596,1255.000000 231.294708,1254.621582 
	C190.037476,1250.535278 152.091644,1238.489868 117.958588,1216.018188 
	C55.082802,1174.623169 16.735558,1116.801270 3.789281,1042.436890 
	C2.667181,1035.991455 1.920869,1029.480469 0.999999,1023.000000 
	C1.000000,759.638611 1.000000,496.277252 1.365159,232.263870 
	C2.339321,226.154251 2.753628,220.666718 3.587982,215.243790 
	C10.576413,169.821899 28.557779,129.149002 57.729271,93.731255 
	C100.700264,41.559227 155.860031,11.053884 223.082764,2.663069 
	C225.749481,2.330207 228.362152,1.564192 231.000000,0.999999 
	C494.694702,1.000000 758.389404,1.000000 1022.706543,1.389584 
	C1031.579590,2.815318 1039.887817,3.518619 1048.071899,4.937822 
	C1160.595825,24.450779 1242.068604,119.702972 1253.337646,222.033020 
	C1253.669434,225.046509 1254.436035,228.012085 1255.000000,231.000000 
M438.364014,789.036499 
	C438.207642,789.682922 438.051270,790.329285 437.374237,791.459473 
	C437.002991,792.584290 436.631775,793.709045 435.934845,795.410034 
	C434.870911,798.575745 433.807007,801.741455 432.300293,805.291260 
	C432.204987,805.861938 432.109680,806.432556 431.535370,807.484070 
	C430.957397,809.200623 430.379425,810.917114 429.276154,813.153015 
	C427.794495,817.336609 426.312836,821.520264 424.325562,826.225403 
	C420.429230,836.437744 416.492615,846.634888 412.649170,856.867126 
	C409.515930,865.208496 406.494141,873.591675 403.027252,882.487366 
	C401.515930,886.516846 399.988251,890.540283 398.496277,894.576904 
	C392.654480,910.382446 386.824036,926.192139 380.597290,942.610413 
	C371.007324,967.923828 361.417328,993.237244 351.582275,1019.197510 
	C354.106293,1019.197510 355.752991,1019.197510 357.399658,1019.197449 
	C377.227722,1019.196777 397.055786,1019.196411 416.883850,1019.195251 
	C431.546448,1019.194397 446.209686,1019.251099 460.870758,1019.099731 
	C462.327362,1019.084656 464.668488,1018.139954 465.084442,1017.049072 
	C470.532684,1002.759033 475.708099,988.364990 481.129272,973.283691 
	C486.164703,959.889893 491.200134,946.496155 496.699921,932.578796 
	C504.888397,910.420776 513.076843,888.262695 521.734558,865.550537 
	C522.425720,863.429626 523.116943,861.308777 524.191528,858.653198 
	C524.943481,856.501221 525.695435,854.349243 526.873779,851.638611 
	C529.291870,844.187622 531.710022,836.736633 534.775635,828.924927 
	C544.130859,804.434631 553.486084,779.944336 563.057068,754.889038 
	C552.544373,754.889038 543.270874,754.889038 533.196045,754.701843 
	C530.959534,754.784973 528.723083,754.868164 525.502441,754.769714 
	C502.180817,754.748962 478.858765,754.664307 455.538483,754.830078 
	C453.697754,754.843201 450.792999,756.163757 450.209534,757.612366 
	C446.335999,767.229919 442.960907,777.048157 439.126556,787.182617 
	C439.042572,787.653442 438.958557,788.124329 438.364014,789.036499 
M948.499756,866.426941 
	C960.930664,866.426941 973.361511,866.426941 986.198669,866.426941 
	C985.344116,864.120178 984.804138,862.555847 984.190308,861.021057 
	C963.166382,808.452393 942.142578,755.883667 921.103638,703.321045 
	C889.055237,623.253113 857.007385,543.184937 824.936890,463.125793 
	C800.833252,402.954559 776.668701,342.807678 752.639526,282.606659 
	C751.271362,279.178864 749.603394,277.971405 745.782715,277.998138 
	C716.951782,278.199707 688.118835,278.111237 659.286560,278.113190 
	C652.640686,278.113647 645.994812,278.113281 639.429932,278.113281 
	C597.841858,383.156372 556.380981,487.878174 514.857178,592.758911 
	C515.910095,592.898560 516.402649,593.021118 516.895203,593.020996 
	C550.560486,593.013611 584.225952,592.940552 617.890625,593.070251 
	C621.093628,593.082581 621.673340,591.401794 622.510803,589.117432 
	C637.033752,549.504944 651.574402,509.898804 666.176331,470.315338 
	C675.181030,445.905090 684.295410,421.535278 693.895508,395.708038 
	C723.432922,472.883545 752.468750,548.748413 781.674622,625.057617 
	C675.957031,625.057617 571.436646,625.057617 466.462708,625.057617 
	C527.556824,467.193695 588.447998,309.854340 649.533936,152.011658 
	C616.375732,152.011658 584.217651,151.969223 552.060974,152.159912 
	C550.711914,152.167908 548.713928,154.083649 548.128357,155.553040 
	C518.306335,230.383392 488.660706,305.283966 458.874573,380.128662 
	C432.285797,446.939240 405.601929,513.712097 378.876862,580.468323 
	C346.586670,661.125610 314.213348,741.749695 281.864990,822.383728 
	C276.068024,836.833801 270.217865,851.262512 264.230133,866.102966 
	C266.000702,866.242249 267.286224,866.431458 268.571747,866.431580 
	C301.903717,866.434509 335.236145,866.332764 368.567078,866.510681 
	C372.801300,866.533264 374.586365,865.049561 376.030762,861.258789 
	C393.069153,816.542664 410.280182,771.892273 427.411499,727.211487 
	C428.563599,724.206726 429.399475,721.952637 433.740662,721.957886 
	C560.235779,722.110107 686.731140,722.083252 813.226440,721.981934 
	C816.735718,721.979126 818.446106,722.915710 819.736023,726.329041 
	C836.881348,771.698059 854.223145,816.992920 871.395813,862.351685 
	C872.582642,865.486511 874.086853,866.584656 877.502869,866.558105 
	C900.834106,866.376404 924.167175,866.440796 948.499756,866.426941 
z"/>
<path fill="#FDFDFD" opacity="1.000000" stroke="none" 
	d="
M230.531342,0.999999 
	C228.362152,1.564192 225.749481,2.330207 223.082764,2.663069 
	C155.860031,11.053884 100.700264,41.559227 57.729271,93.731255 
	C28.557779,129.149002 10.576413,169.821899 3.587982,215.243790 
	C2.753628,220.666718 2.339321,226.154251 1.365159,231.805923 
	C1.000000,155.073105 1.000000,78.146225 1.000000,1.000000 
	C77.354088,1.000000 153.708389,1.000000 230.531342,0.999999 
z"/>
<path fill="#FDFDFD" opacity="1.000000" stroke="none" 
	d="
M0.999999,1023.468628 
	C1.920869,1029.480469 2.667181,1035.991455 3.789281,1042.436890 
	C16.735558,1116.801270 55.082802,1174.623169 117.958588,1216.018188 
	C152.091644,1238.489868 190.037476,1250.535278 230.836761,1254.621582 
	C154.405975,1255.000000 77.811943,1255.000000 1.000000,1255.000000 
	C1.000000,1177.979248 1.000000,1100.958252 0.999999,1023.468628 
z"/>
<path fill="#FDFDFD" opacity="1.000000" stroke="none" 
	d="
M1255.000000,230.531342 
	C1254.436035,228.012085 1253.669434,225.046509 1253.337646,222.033020 
	C1242.068604,119.702972 1160.595825,24.450779 1048.071899,4.937822 
	C1039.887817,3.518619 1031.579590,2.815318 1023.164551,1.389584 
	C1100.260010,1.000000 1177.520142,1.000000 1255.000000,1.000000 
	C1255.000000,77.354088 1255.000000,153.708389 1255.000000,230.531342 
z"/>
<path fill="#FDFDFD" opacity="1.000000" stroke="none" 
	d="
M1023.468628,1255.000000 
	C1026.653442,1254.427856 1030.296631,1253.778809 1033.961670,1253.295044 
	C1101.751831,1244.347168 1157.241333,1213.417236 1200.087769,1160.088135 
	C1226.713989,1126.947632 1244.108887,1089.501465 1251.504517,1047.547852 
	C1252.629272,1041.167114 1253.338257,1034.713135 1254.619873,1028.146484 
	C1255.000000,1103.594482 1255.000000,1179.189087 1255.000000,1255.000000 
	C1177.979248,1255.000000 1100.958252,1255.000000 1023.468628,1255.000000 
z"/>
<path fill="#FDFDFD" opacity="1.000000" stroke="none" 
	d="
M947.999756,866.426392 
	C924.167175,866.440796 900.834106,866.376404 877.502869,866.558105 
	C874.086853,866.584656 872.582642,865.486511 871.395813,862.351685 
	C854.223145,816.992920 836.881348,771.698059 819.736023,726.329041 
	C818.446106,722.915710 816.735718,721.979126 813.226440,721.981934 
	C686.731140,722.083252 560.235779,722.110107 433.740662,721.957886 
	C429.399475,721.952637 428.563599,724.206726 427.411499,727.211487 
	C410.280182,771.892273 393.069153,816.542664 376.030762,861.258789 
	C374.586365,865.049561 372.801300,866.533264 368.567078,866.510681 
	C335.236145,866.332764 301.903717,866.434509 268.571747,866.431580 
	C267.286224,866.431458 266.000702,866.242249 264.230133,866.102966 
	C270.217865,851.262512 276.068024,836.833801 281.864990,822.383728 
	C314.213348,741.749695 346.586670,661.125610 378.876862,580.468323 
	C405.601929,513.712097 432.285797,446.939240 458.874573,380.128662 
	C488.660706,305.283966 518.306335,230.383392 548.128357,155.553040 
	C548.713928,154.083649 550.711914,152.167908 552.060974,152.159912 
	C584.217651,151.969223 616.375732,152.011658 649.533936,152.011658 
	C588.447998,309.854340 527.556824,467.193695 466.462708,625.057617 
	C571.436646,625.057617 675.957031,625.057617 781.674622,625.057617 
	C752.468750,548.748413 723.432922,472.883545 693.895508,395.708038 
	C684.295410,421.535278 675.181030,445.905090 666.176331,470.315338 
	C651.574402,509.898804 637.033752,549.504944 622.510803,589.117432 
	C621.673340,591.401794 621.093628,593.082581 617.890625,593.070251 
	C584.225952,592.940552 550.560486,593.013611 516.895203,593.020996 
	C516.402649,593.021118 515.910095,592.898560 514.857178,592.758911 
	C556.380981,487.878174 597.841858,383.156372 639.429932,278.113281 
	C645.994812,278.113281 652.640686,278.113647 659.286560,278.113190 
	C688.118835,278.111237 716.951782,278.199707 745.782715,277.998138 
	C749.603394,277.971405 751.271362,279.178864 752.639526,282.606659 
	C776.668701,342.807678 800.833252,402.954559 824.936890,463.125793 
	C857.007385,543.184937 889.055237,623.253113 921.103638,703.321045 
	C942.142578,755.883667 963.166382,808.452393 984.190308,861.021057 
	C984.804138,862.555847 985.344116,864.120178 986.198669,866.426941 
	C973.361511,866.426941 960.930664,866.426941 947.999756,866.426392 
z"/>
<path fill="#C99A3F" opacity="1.000000" stroke="none" 
	d="
M380.989319,942.000244 
	C386.824036,926.192139 392.654480,910.382446 398.496277,894.576904 
	C399.988251,890.540283 401.515930,886.516846 403.702515,882.242310 
	C407.138153,881.539673 410.027496,881.453918 412.633240,880.550354 
	C418.878448,878.384644 422.007690,878.728149 425.850159,883.985718 
	C428.525513,887.646240 431.795837,887.824951 435.027374,886.348206 
	C441.534424,883.374634 447.821381,880.764099 454.663483,885.192993 
	C454.934998,885.368774 455.214905,885.531555 455.652740,885.799377 
	C455.890289,887.281067 456.145721,888.874268 456.330811,890.028687 
	C460.684662,889.675415 464.771973,888.943176 468.794556,889.205139 
	C470.519348,889.317444 472.109528,891.497192 473.760864,892.737549 
	C472.699860,893.926880 471.586823,895.074585 470.593567,896.318054 
	C469.715027,897.417664 468.969788,898.623840 468.165710,899.782959 
	C469.297760,900.545410 470.371460,901.423096 471.579773,902.034973 
	C472.602661,902.552856 473.833282,902.650574 474.879913,903.133667 
	C476.930237,904.080200 477.850830,905.286743 475.641266,907.173645 
	C470.203949,911.816772 471.342041,918.398621 469.957489,924.722717 
	C473.993500,924.690735 475.722076,925.821838 476.329437,929.772095 
	C477.176849,935.283630 480.702911,936.457825 486.350952,934.839233 
	C489.549103,933.922729 492.934540,933.659790 496.235596,933.102417 
	C491.200134,946.496155 486.164703,959.889893 480.668030,973.647949 
	C478.469421,976.356445 476.254120,978.490356 475.107269,981.094666 
	C473.406342,984.957214 470.493317,986.691162 466.517456,985.245667 
	C465.279114,984.795410 464.038330,984.294373 462.754456,984.037048 
	C458.103729,983.105042 454.366211,978.919800 454.002899,974.107605 
	C453.412048,966.281555 453.362457,966.718872 445.592682,965.837585 
	C440.810516,965.295227 434.197357,964.616882 431.929474,961.464722 
	C426.675995,954.162903 420.101105,954.141479 412.732574,954.170593 
	C409.926697,954.181702 407.056213,953.529419 404.330872,952.766174 
	C402.483185,952.248657 400.837219,951.010803 398.985046,950.033875 
	C396.529541,953.663818 392.637634,954.422607 390.242218,952.120483 
	C385.697845,947.752808 393.990295,947.125061 393.564697,942.670410 
	C389.452484,942.451294 385.220886,942.225769 380.989319,942.000244 
z"/>
<path fill="#D2A144" opacity="1.000000" stroke="none" 
	d="
M496.467773,932.840576 
	C492.934540,933.659790 489.549103,933.922729 486.350952,934.839233 
	C480.702911,936.457825 477.176849,935.283630 476.329437,929.772095 
	C475.722076,925.821838 473.993500,924.690735 469.957489,924.722717 
	C471.342041,918.398621 470.203949,911.816772 475.641266,907.173645 
	C477.850830,905.286743 476.930237,904.080200 474.879913,903.133667 
	C473.833282,902.650574 472.602661,902.552856 471.579773,902.034973 
	C470.371460,901.423096 469.297760,900.545410 468.165710,899.782959 
	C468.969788,898.623840 469.715027,897.417664 470.593567,896.318054 
	C471.586823,895.074585 472.699860,893.926880 473.760864,892.737549 
	C472.109528,891.497192 470.519348,889.317444 468.794556,889.205139 
	C464.771973,888.943176 460.684662,889.675415 456.330811,890.028687 
	C456.145721,888.874268 455.890289,887.281067 455.652740,885.799377 
	C455.214905,885.531555 454.934998,885.368774 454.663483,885.192993 
	C447.821381,880.764099 441.534424,883.374634 435.027374,886.348206 
	C431.795837,887.824951 428.525513,887.646240 425.850159,883.985718 
	C422.007690,878.728149 418.878448,878.384644 412.633240,880.550354 
	C410.027496,881.453918 407.138153,881.539673 403.900330,881.976807 
	C406.494141,873.591675 409.515930,865.208496 412.649170,856.867126 
	C416.492615,846.634888 420.429230,836.437744 424.737793,826.288086 
	C428.128662,829.419617 430.985779,832.620972 434.131195,835.508240 
	C436.039734,837.259949 438.247955,838.882935 440.613190,839.851318 
	C441.701141,840.296753 444.369476,839.427063 444.799072,838.470337 
	C446.233093,835.276733 446.978790,831.774109 448.077545,828.090515 
	C449.078125,828.252441 450.192719,828.396790 451.292175,828.616821 
	C456.389801,829.636963 461.410156,827.159607 463.637817,822.502686 
	C465.792725,817.997864 468.589172,817.611084 473.302399,819.390747 
	C477.439728,820.952942 480.218842,823.580811 482.458466,826.987000 
	C485.322479,831.342773 487.905304,835.884338 490.556702,840.377014 
	C490.766235,840.731934 490.452637,841.359619 490.573547,841.808960 
	C491.128052,843.869751 491.556458,845.996460 492.399170,847.939392 
	C493.402222,850.252014 495.947205,852.482666 495.798676,854.607239 
	C495.120941,864.301392 504.078308,870.946289 513.771729,866.726257 
	C515.947388,865.778992 518.750854,866.273743 521.265320,866.104675 
	C513.076843,888.262695 504.888397,910.420776 496.467773,932.840576 
z"/>
<path fill="#C2943A" opacity="1.000000" stroke="none" 
	d="
M380.793274,942.305298 
	C385.220886,942.225769 389.452484,942.451294 393.564697,942.670410 
	C393.990295,947.125061 385.697845,947.752808 390.242218,952.120483 
	C392.637634,954.422607 396.529541,953.663818 398.985046,950.033875 
	C400.837219,951.010803 402.483185,952.248657 404.330872,952.766174 
	C407.056213,953.529419 409.926697,954.181702 412.732574,954.170593 
	C420.101105,954.141479 426.675995,954.162903 431.929474,961.464722 
	C434.197357,964.616882 440.810516,965.295227 445.592682,965.837585 
	C453.362457,966.718872 453.412048,966.281555 454.002899,974.107605 
	C454.366211,978.919800 458.103729,983.105042 462.754456,984.037048 
	C464.038330,984.294373 465.279114,984.795410 466.517456,985.245667 
	C470.493317,986.691162 473.406342,984.957214 475.107269,981.094666 
	C476.254120,978.490356 478.469421,976.356445 480.579376,974.004578 
	C475.708099,988.364990 470.532684,1002.759033 465.084442,1017.049072 
	C464.668488,1018.139954 462.327362,1019.084656 460.870758,1019.099731 
	C446.209686,1019.251099 431.546448,1019.194397 416.883850,1019.195251 
	C397.055786,1019.196411 377.227722,1019.196777 357.399658,1019.197449 
	C355.752991,1019.197510 354.106293,1019.197510 351.582275,1019.197510 
	C361.417328,993.237244 371.007324,967.923828 380.793274,942.305298 
z"/>
<path fill="#D8A648" opacity="1.000000" stroke="none" 
	d="
M533.997314,754.889038 
	C543.270874,754.889038 552.544373,754.889038 563.057068,754.889038 
	C553.486084,779.944336 544.130859,804.434631 534.393311,828.739136 
	C534.159729,826.602783 534.308411,824.652283 534.479248,822.411194 
	C529.595703,821.678223 530.671814,826.473572 528.906921,829.316101 
	C524.247925,825.664673 519.581421,822.648315 515.734863,818.810242 
	C511.966278,815.049988 508.974609,810.496155 505.771515,806.194092 
	C504.933899,805.069092 504.764221,803.455261 503.955353,802.298279 
	C502.876495,800.755249 501.509277,799.404480 500.198273,798.035889 
	C498.977875,796.762085 496.412048,795.266846 496.622955,794.401306 
	C497.412201,791.162598 495.410828,790.966980 493.400116,789.956787 
	C490.222290,788.360107 486.962463,786.616882 484.373444,784.242188 
	C481.598358,781.696899 475.353424,781.099609 472.654297,783.582275 
	C471.373138,784.760742 469.477478,785.741943 467.773560,785.904602 
	C461.887726,786.466614 459.921997,788.829834 460.565521,794.508850 
	C460.720184,795.873779 459.588257,798.490906 458.681000,798.669739 
	C455.512390,799.294067 452.206940,799.752625 449.912720,796.019775 
	C447.421448,791.966370 444.808258,787.711670 439.423645,786.801086 
	C442.960907,777.048157 446.335999,767.229919 450.209534,757.612366 
	C450.792999,756.163757 453.697754,754.843201 455.538483,754.830078 
	C478.858765,754.664307 502.180817,754.748962 525.863892,755.287231 
	C527.563354,757.104065 528.901428,758.403320 530.239502,759.702515 
	C531.492126,758.098022 532.744751,756.493530 533.997314,754.889038 
M545.827515,756.250366 
	C545.881836,756.414490 545.936218,756.578613 545.990662,756.742737 
	C546.043762,756.577637 546.096863,756.412537 545.827515,756.250366 
z"/>
<path fill="#D5A447" opacity="1.000000" stroke="none" 
	d="
M439.275085,786.991821 
	C444.808258,787.711670 447.421448,791.966370 449.912720,796.019775 
	C452.206940,799.752625 455.512390,799.294067 458.681000,798.669739 
	C459.588257,798.490906 460.720184,795.873779 460.565521,794.508850 
	C459.921997,788.829834 461.887726,786.466614 467.773560,785.904602 
	C469.477478,785.741943 471.373138,784.760742 472.654297,783.582275 
	C475.353424,781.099609 481.598358,781.696899 484.373444,784.242188 
	C486.962463,786.616882 490.222290,788.360107 493.400116,789.956787 
	C495.410828,790.966980 497.412201,791.162598 496.622955,794.401306 
	C496.412048,795.266846 498.977875,796.762085 500.198273,798.035889 
	C501.509277,799.404480 502.876495,800.755249 503.955353,802.298279 
	C504.764221,803.455261 504.933899,805.069092 505.771515,806.194092 
	C508.974609,810.496155 511.966278,815.049988 515.734863,818.810242 
	C519.581421,822.648315 524.247925,825.664673 528.906921,829.316101 
	C530.671814,826.473572 529.595703,821.678223 534.479248,822.411194 
	C534.308411,824.652283 534.159729,826.602783 534.069580,828.919434 
	C531.710022,836.736633 529.291870,844.187622 526.319458,851.782959 
	C522.428650,850.195801 521.001709,852.961060 520.435181,855.009705 
	C520.157227,856.014587 522.597839,857.771362 523.808105,859.187866 
	C523.116943,861.308777 522.425720,863.429626 521.499939,865.827637 
	C518.750854,866.273743 515.947388,865.778992 513.771729,866.726257 
	C504.078308,870.946289 495.120941,864.301392 495.798676,854.607239 
	C495.947205,852.482666 493.402222,850.252014 492.399170,847.939392 
	C491.556458,845.996460 491.128052,843.869751 490.573547,841.808960 
	C490.452637,841.359619 490.766235,840.731934 490.556702,840.377014 
	C487.905304,835.884338 485.322479,831.342773 482.458466,826.987000 
	C480.218842,823.580811 477.439728,820.952942 473.302399,819.390747 
	C468.589172,817.611084 465.792725,817.997864 463.637817,822.502686 
	C461.410156,827.159607 456.389801,829.636963 451.292175,828.616821 
	C450.192719,828.396790 449.078125,828.252441 448.077545,828.090515 
	C446.978790,831.774109 446.233093,835.276733 444.799072,838.470337 
	C444.369476,839.427063 441.701141,840.296753 440.613190,839.851318 
	C438.247955,838.882935 436.039734,837.259949 434.131195,835.508240 
	C430.985779,832.620972 428.128662,829.419617 424.990601,826.027344 
	C426.312836,821.520264 427.794495,817.336609 429.705658,813.236328 
	C434.058746,815.624268 438.212677,817.558289 438.869904,823.034424 
	C439.014771,824.241211 441.338867,825.186401 442.659424,826.252014 
	C443.157135,826.052673 443.654816,825.853271 444.152527,825.653931 
	C443.991119,823.575623 444.484680,821.114563 443.538300,819.494995 
	C441.239014,815.560181 438.372314,811.934265 435.497009,808.375488 
	C434.814911,807.531250 433.200165,807.440552 432.014404,807.003235 
	C432.109680,806.432556 432.204987,805.861938 432.924164,805.159363 
	C435.913544,805.681396 438.248199,806.504456 440.652985,806.943054 
	C443.219574,807.411194 444.616852,805.977600 443.854950,803.530396 
	C442.633453,799.607178 441.259186,795.566528 436.260559,794.833862 
	C436.631775,793.709045 437.002991,792.584290 437.919556,791.021362 
	C438.601440,789.920532 438.737976,789.257874 438.874542,788.595154 
	C438.958557,788.124329 439.042572,787.653442 439.275085,786.991821 
z"/>
<path fill="#D2A144" opacity="1.000000" stroke="none" 
	d="
M431.774902,807.243652 
	C433.200165,807.440552 434.814911,807.531250 435.497009,808.375488 
	C438.372314,811.934265 441.239014,815.560181 443.538300,819.494995 
	C444.484680,821.114563 443.991119,823.575623 444.152527,825.653931 
	C443.654816,825.853271 443.157135,826.052673 442.659424,826.252014 
	C441.338867,825.186401 439.014771,824.241211 438.869904,823.034424 
	C438.212677,817.558289 434.058746,815.624268 429.968292,812.976685 
	C430.379425,810.917114 430.957397,809.200623 431.774902,807.243652 
z"/>
<path fill="#D8A648" opacity="1.000000" stroke="none" 
	d="
M436.097687,795.121948 
	C441.259186,795.566528 442.633453,799.607178 443.854950,803.530396 
	C444.616852,805.977600 443.219574,807.411194 440.652985,806.943054 
	C438.248199,806.504456 435.913544,805.681396 433.145569,804.967285 
	C433.807007,801.741455 434.870911,798.575745 436.097687,795.121948 
z"/>
<path fill="#D2A144" opacity="1.000000" stroke="none" 
	d="
M523.999817,858.920532 
	C522.597839,857.771362 520.157227,856.014587 520.435181,855.009705 
	C521.001709,852.961060 522.428650,850.195801 526.106323,852.062317 
	C525.695435,854.349243 524.943481,856.501221 523.999817,858.920532 
z"/>
<path fill="#D4A244" opacity="1.000000" stroke="none" 
	d="
M533.596680,754.795410 
	C532.744751,756.493530 531.492126,758.098022 530.239502,759.702515 
	C528.901428,758.403320 527.563354,757.104065 526.355957,755.378052 
	C528.723083,754.868164 530.959534,754.784973 533.596680,754.795410 
z"/>
<path fill="#D8A648" opacity="1.000000" stroke="none" 
	d="
M438.619263,788.815796 
	C438.737976,789.257874 438.601440,789.920532 438.179871,790.779480 
	C438.051270,790.329285 438.207642,789.682922 438.619263,788.815796 
z"/>
<path fill="#D4A244" opacity="1.000000" stroke="none" 
	d="
M545.988770,756.248901 
	C546.096863,756.412537 546.043762,756.577637 545.990601,756.742737 
	C545.936218,756.578613 545.881836,756.414490 545.988770,756.248901 
z"/>
</svg>